<svg height="512" viewBox="0 0 60 60" width="512" xmlns="http://www.w3.org/2000/svg"><g id="009---Corosive-Liquid" fill="none"><g id="Icons" transform="translate(1 1)"><path id="Shape" d="m58 29c-.0004652 7.9495901-3.2642918 15.550451-9.0282593 21.0251804-5.7639675 5.4747293-13.5226503 8.3432641-21.4617407 7.9348196h-.02c-15.335-.395-27.49-13.45-27.49-28.96s12.155-28.565 27.49-28.96h.02c7.9390904-.40844447 15.6977732 2.46009026 21.4617407 7.93481964 5.7639675 5.47472936 9.0277941 13.07559026 9.0282593 21.02518036z" fill="#c81e1e"/><path id="Shape" d="m55 29c-.0003518 15.4291761-12.0817537 28.1566188-27.49 28.96h-.02c-15.335-.395-27.49-13.45-27.49-28.96s12.155-28.565 27.49-28.96h.02c15.4082463.80338124 27.4896482 13.5308239 27.49 28.96z" fill="#f44335"/><path id="Shape" d="m54 29c0 14.885-12.906 26.037-26.5 24.95-13.1983118-.7930491-23.49582523-11.7278837-23.49582523-24.95s10.29751343-24.15695086 23.49582523-24.95c13.629-1.09 26.5 10.091 26.5 24.95z" fill="#cfd8dc"/><ellipse id="Oval" cx="27.5" cy="29" fill="#f5f5f5" rx="23.5" ry="24.95"/><g fill="#607d8b"><path id="Shape" d="m46.17 36.18-11.79 6.18c-.6906062.4183598-1.4825585.6396915-2.29.64h-17.09c-1.5645426.0067195-2.8669456-1.199533-2.98-2.76-.032-.126-.02.391-.02-7.24 0-1.6568542 1.3431458-3 3-3h2.77c1.3256126-.0015908 2.6112181.4540221 3.64 1.29 1.0253573.8270589 2.3026609 1.2787021 3.62 1.28h3.31c2.449 0 4.146 2.824 2.46 4.51.7618905.0856428 1.5327819.0416884 2.28-.13 12.606-4.037 11.8-3.97 12.2-3.97.7704355.006684 1.4433695.5226199 1.6498189 1.2649098.2064493.7422898-.1034683 1.5315813-.7598189 1.9350902z"/><path id="Shape" d="m34.5 18.77-2.5 4.33c-3.1-1.791-.571-.336-12.99-7.5-.9288905-.5358984-1.5013224-1.5266461-1.501666-2.5990381-.0003437-1.072392.5714531-2.0635064 1.5-2.6.9285468-.53649361 2.0727755-.53686028 3.001666-.0009619l12.12 7c.2314397.1319512.4006596.350799.4701217.6079963.069462.2571974.0334233.53148-.1001217.7620037z"/></g></g><g id="Layer_2" fill="#000"><path id="Shape" d="m30 60c16.5685425 0 30-13.4314575 30-30s-13.4314575-30-30-30-30 13.4314575-30 30c.01873704 16.5607751 13.4392249 29.981263 30 30zm0-58c15.463973 0 28 12.536027 28 28s-12.536027 28-28 28-28-12.536027-28-28c.01763454-15.4566626 12.5433374-27.98236546 28-28z"/><path id="Shape" d="m33.085 45c.9699905.0031881 1.9224892-.2581873 2.755-.756l11.851-6.212c1.1862785-.720708 1.6415873-2.2177157 1.0574786-3.4768797-.5841086-1.259164-2.0210957-1.8783621-3.3374786-1.4381203-12.694 4.232-11.657 3.913-12.011 3.941.1407417-1.1522418-.2260053-2.3087939-1.0050212-3.1693772s-1.8934575-1.3403084-3.0539788-1.3146228h-3.308c-1.0923955-.0013114-2.1512999-.3772225-3-1.065-2.212-1.792-4.255-1.509-7.033-1.509-2.209139 0-4 1.790861-4 4v7c0 2.209139 1.790861 4 4 4zm-19.085-4v-7c0-1.1045695.8954305-2 2-2h2.771c1.0971017.0018554 2.1604609.3794838 3.013 1.07 1.2036264.9702888 2.7029803 1.4995971 4.249 1.5h3.311c1.347 0 2.581 1.368 1.95 2.5-4.493 0-5.229-.262-7.763 1.427-.3067179.1941883-.4841083.5393479-.4634594.9017822.0206488.3624343.2360934.685213.5628819.8433087.3267885.1580958.7135898.1266752 1.0105775-.0820909.8653603-.6942473 1.9386374-1.0780636 3.048-1.09 6.01 0 5.979.062 6.707-.181l11.648-3.883c.2972552-.0981763.6239791.0049573.811.256.2393866.3233783.1738233.7791998-.147 1.022-12.863 6.75-12.445 6.716-13.623 6.716h-17.085c-1.1045695 0-2-.8954305-2-2z"/><path id="Shape" d="m34 24.367 2.866-4.967c.2761293-.4782803.1122682-1.0898496-.366-1.366l-12.99-7.5c-1.9133905-1.1045695-4.3599305-.4488905-5.4645 1.4645s-.4488905 4.3599305 1.4645 5.4645l12.49 7.213v2.324c0 .5522847.4477153 1 1 1s1-.4477153 1-1zm-14.223-11.367c.2653955-.4594476.7024833-.7946068 1.2150561-.9317055.5125728-.1370986 1.0586174-.0648996 1.5179439.2007055l12.124 7-2 3.463-12.124-7c-.9545376-.5537692-1.2821399-1.7747917-.733-2.732z"/><path id="Shape" d="m33 30c-.5522847 0-1 .4477153-1 1v1c0 .5522847.4477153 1 1 1s1-.4477153 1-1v-1c0-.5522847-.4477153-1-1-1z"/><path id="Shape" d="m39.56 26c-1.3762803-.0019183-2.5763506.9352755-2.908 2.271l-.622 2.486c-.0897157.3475751.0137487.7165715.2710941.9668327.2573454.2502613.6290855.3433879.9740215.2440075.3449361-.0993804.6101421-.3760192.6948844-.7248402l.623-2.488c.1100545-.4442928.5092806-.7559947.967-.755 1.289618.0003796 2.4342727-.8258677 2.84-2.05l1.545-4.634c.1128959-.3394023.0361471-.7132522-.201336-.9807241-.237483-.2674719-.599621-.3879305-.95-.3160001-.350379.0719305-.6357681.3253219-.748664.6647242l-1.546 4.634c-.135581.4042823-.5126066.6781177-.939.682z"/><path id="Shape" d="m43.269 29.033c-.145.43-.193.382-2.824 2.135-.3666557.2444851-.5300428.7001723-.4022708 1.1219349s.5165789.710164.9572708.7100651c.436 0 .477-.115 2.984-1.788 1.783-1.189.987-3.212 2.456-3.212h.491c1.0025764.0012751 1.9390626-.5000116 2.494-1.335l1.407-2.11c.306518-.4595009.1825009-1.080482-.277-1.387s-1.080482-.1825009-1.387.277c-1.76 2.648-1.459 2.555-2.728 2.555-1.289618-.0003796-2.4342727.8258677-2.84 2.05z"/><path id="Shape" d="m54 30c0 19.346-21.707 30.516-37.407 19.9-.4575679-.3095556-1.0794444-.1895679-1.389.268s-.1895679 1.0794444.268 1.389c17.075 11.543 40.528-.657 40.528-21.557.0151973-6.8975969-2.7297611-13.5145921-7.623-18.376-.2510745-.2599566-.6228779-.3642126-.9725073-.2726972-.3496295.0915155-.6226744.3645604-.7141899.7141899-.0915154.3496294.0127406.7214328.2726972.9725073 4.5168268 4.4873017 7.0507603 10.5951003 7.037 16.962z"/><path id="Shape" d="m10.1 43.408c-10.652-15.761.61-37.408 19.9-37.408 3.2062092-.00593438 6.3805027.63661175 9.332 1.889.3295976.14211105.7100767.09667889.9969463-.11904309.2868695-.21572199.4361226-.56864127.3910786-.92473275s-.2774751-.66072944-.6090249-.79822416c-3.1978145-1.35716997-6.6371137-2.05346562-10.111-2.047-20.929 0-33.078 23.483-21.553 40.528.20006873.2959945.54285107.4627694.89922423.437502.35637315-.0252673.67219557-.2387381.82849997-.56.1563045-.3212618.1293445-.7015075-.0707242-.997502z"/></g></g></svg>