<svg height="512pt" viewBox="0 0 512 511" width="512pt" xmlns="http://www.w3.org/2000/svg"><path d="m256 63.964844 160.535156 160.535156 26.429688-26.429688-186.964844-186.964843-186.964844 186.964843 26.429688 26.429688zm0 0" fill="#57a4ff"/><path d="m377.773438 132.882812v-110.371093h-63.5v46.871093zm0 0" fill="#ff8243"/><path d="m256 63.964844s-77.171875 77.171875-121.773438 121.773437v151.730469h243.546876v-151.730469zm0 0" fill="#fff5cc"/><path d="m276.609375 151.8125-64.3125 111.394531c-4.171875 7.226563 1.042969 16.261719 9.390625 16.261719h128.625c8.347656 0 13.5625-9.035156 9.390625-16.261719l-64.3125-111.394531c-4.171875-7.226562-14.609375-7.226562-18.78125 0zm0 0" fill="#ffc477"/><path d="m7.5 337.46875h497v167.5h-497zm0 0" fill="#ffb655"/><path d="m186.898438 431.761719 22.019531-22.023438c42.503906 42.503907 111.65625 42.503907 154.15625 0l22.023437 22.023438c-54.644531 54.644531-143.558594 54.644531-198.199218 0zm0 0" fill="#ff8243"/><path d="m230.941406 387.71875 22.023438-22.023438c18.214844 18.214844 47.851562 18.214844 66.066406 0l22.019531 22.023438c-30.355469 30.355469-79.75 30.355469-110.109375 0zm0 0" fill="#ff8243"/><path d="m156.898438 431.761719 22.019531-22.023438c42.503906 42.503907 111.65625 42.503907 154.15625 0l22.023437 22.023438c-54.644531 54.644531-143.558594 54.644531-198.199218 0zm0 0" fill="#57a4ff"/><path d="m200.941406 387.71875 22.023438-22.023438c18.214844 18.214844 47.851562 18.214844 66.066406 0l22.019531 22.023438c-30.355469 30.355469-79.75 30.355469-110.109375 0zm0 0" fill="#57a4ff"/><path d="m246.609375 151.8125-64.3125 111.394531c-4.171875 7.226563 1.042969 16.261719 9.390625 16.261719h128.625c8.347656 0 13.5625-9.035156 9.390625-16.261719l-64.3125-111.394531c-4.171875-7.226562-14.609375-7.226562-18.78125 0zm0 0" fill="#ffe477"/><path d="m99.035156 198.070312 171.964844-171.964843-15-15-186.964844 186.964843 26.429688 26.429688 15-15zm0 0" fill="#006df0"/><path d="m344.273438 69.382812v-46.871093h-30v46.871093l63.5 63.5v-30zm0 0" fill="#ed4726"/><path d="m271 78.964844-15-15s-77.171875 77.171875-121.773438 121.773437v151.730469h30v-151.730469c32.4375-32.4375 82.097657-82.097656 106.773438-106.773437zm0 0" fill="#ffc477"/><path d="m7.5 337.46875h30v167.5h-30zm0 0" fill="#ff8243"/><path d="m186.894531 431.761719 8.492188-8.492188c-5.8125-3.890625-11.335938-8.398437-16.46875-13.53125l-22.023438 22.023438c31.136719 31.136719 73.394531 44.519531 114.101563 40.175781-30.738282-3.28125-60.589844-16.667969-84.101563-40.175781zm0 0" fill="#006df0"/><path d="m230.941406 387.71875 10.636719-10.640625c-6.808594-2.199219-13.214844-5.984375-18.613281-11.382813l-22.023438 22.023438c19.003906 19.003906 45.46875 26.105469 70.054688 21.316406-14.6875-2.859375-28.703125-9.964844-40.054688-21.316406zm0 0" fill="#006df0"/><path d="m212.296875 263.207031 58.703125-101.675781-5.609375-9.71875c-4.171875-7.226562-14.609375-7.226562-18.78125 0l-64.3125 111.394531c-4.171875 7.226563 1.042969 16.261719 9.390625 16.261719h30c-8.347656 0-13.5625-9.035156-9.390625-16.261719zm0 0" fill="#ffb655"/><path d="m256 74.570312 160.53125 160.535157 37.039062-37.035157-197.570312-197.570312-197.570312 197.570312 37.039062 37.035157zm0-52.855468 176.355469 176.355468-15.824219 15.820313-160.53125-160.53125-160.53125 160.53125-15.824219-15.820313zm0 0"/><path d="m321.773438 30.011719h48.5v79.871093h15v-94.871093h-78.5v31.371093h15zm0 0"/><path d="m126.726562 208.738281h15v108.730469h-15zm0 0"/><path d="m370.273438 208.738281h15v108.730469h-15zm0 0"/><path d="m0 329.96875v182.5h512v-182.5zm497 167.5h-482v-152.5h482zm0 0"/><path d="m360.402344 437.066406 5.300781-5.304687-32.628906-32.628907-5.304688 5.304688c-39.574219 39.578125-103.972656 39.578125-143.546875 0l-5.304687-5.304688-32.628907 32.628907 5.304688 5.304687c57.5625 57.566406 151.238281 57.570313 208.808594 0zm-181.3125-16.890625c43.839844 38.574219 109.976562 38.574219 153.816406 0l11.4375 11.4375c-50.167969 44.84375-126.527344 44.84375-176.691406 0zm0 0"/><path d="m316.355469 393.019531 5.304687-5.300781-32.628906-32.628906-5.304688 5.300781c-15.289062 15.292969-40.171874 15.292969-55.460937 0l-5.300781-5.300781-32.628906 32.628906 5.300781 5.300781c33.285156 33.28125 87.433593 33.285157 120.71875 0zm-93.027344-17.082031c19.257813 14.554688 46.082031 14.554688 65.335937 0l11.5 11.5c-25.675781 20.734375-62.660156 20.734375-88.335937 0zm0 0"/><path d="m240.113281 148.0625-64.3125 111.394531c-7.058593 12.226563 1.753907 27.515625 15.886719 27.515625h128.625c14.117188 0 22.949219-15.277344 15.882812-27.515625l-64.3125-111.394531c-7.058593-12.226562-24.703124-12.238281-31.769531 0zm80.199219 123.90625h-128.625c-2.578125 0-4.1875-2.773438-2.894531-5.011719l64.3125-111.394531c1.289062-2.226562 4.492187-2.246094 5.789062 0l64.3125 111.394531c1.289063 2.234375-.308593 5.011719-2.894531 5.011719zm0 0"/><path d="m248.5 248.96875h15v15h-15zm0 0"/><path d="m248.5 185.46875h15v53.5h-15zm0 0"/><g fill="#fff"><path d="m360.273438 312.46875h-15v-66.371094h15zm0-76.371094h-15v-15h15zm0-25h-15v-15h15zm0 0"/><path d="m487 479.96875h-15v-67.5h15zm0-77.5h-15v-15h15zm0-25h-15v-15h15zm0 0"/><path d="m345.273438 39.136719h15v40h-15zm0 0"/></g></svg>