<svg id="Capa_1" enable-background="new 0 0 512.002 512.002" height="512" viewBox="0 0 512.002 512.002" width="512" xmlns="http://www.w3.org/2000/svg"><g><g><path d="m274.256 352.436v-25.647l-2.58-1.704h-31.083l-2.747 1.704v25.647c0 54.46-33.138 101.178-80.35 121.095l.93 4.054h193.333l2.847-4.054c-47.212-19.917-80.35-66.635-80.35-121.095z" fill="#8bcaff"/><g><path d="m256.226 352.436v-25.647l1.373-1.704h-17.007l-2.747 1.704v25.647c0 54.46-33.138 101.178-80.35 121.095l.93 4.054h58.09l-.465-4.054c23.606-19.917 40.176-66.635 40.176-121.095z" fill="#60b9fe"/></g><path d="m369.134 473.531h-158.167c-6.121 0-11.083 4.962-11.083 11.083v8.804c0 6.121 4.962 11.083 11.083 11.083h158.167c6.121 0 11.083-4.962 11.083-11.083v-8.804c0-6.12-4.962-11.083-11.083-11.083z" fill="#b5dcff"/><path d="m201.884 493.419v-8.804c0-6.121 4.962-11.083 11.083-11.083h-70c-6.121 0-11.083 4.962-11.083 11.083v8.804c0 6.121 4.962 11.083 11.083 11.083h70c-6.121 0-11.083-4.962-11.083-11.083z" fill="#8bcaff"/><path d="m429.986 7.5h-150.329c-2.438 0-4.696 1.283-5.944 3.378l-62.664 105.2c-2.015 3.383.422 7.673 4.36 7.673h41.341c4.226 0 6.601 4.862 4.003 8.195l-79.742 102.33c-2.206 2.83-6.664.322-5.389-3.032l26.12-68.756c1.262-3.321-1.192-6.878-4.745-6.878h-42.006c-3.717 0-6.173-3.863-4.596-7.228l37.065-79.12c1.438-3.07-.802-6.594-4.193-6.594h-28.302c-2.981 0-5.186-2.777-4.509-5.68l9.55-40.998c1.011-4.339-2.283-8.488-6.738-8.488h-13.401c-5.268 2.114-8.992 7.26-8.992 13.283v118.543c0 92.587 66.45 169.634 154.256 186.104 90.109-13.98 159.081-91.895 159.081-185.922v-117.784c0-7.857-6.37-14.226-14.226-14.226z" fill="#b5dcff"/><g><path d="m131.884 139.508v-117.782c0-7.857 6.369-14.226 14.226-14.226h-63.995c-7.857 0-14.226 6.369-14.226 14.226v117.782c0 103.918 84.242 188.161 188.161 188.161 10.909 0 21.597-.94 31.997-2.722-88.675-15.193-156.163-92.429-156.163-185.439z" fill="#8bcaff"/></g></g><g><path d="m153.218 0h-71.152c-11.98 0-21.726 9.746-21.726 21.726v117.782c0 99.175 74.172 181.345 169.955 193.971v18.957c0 49.462-29.174 93.88-74.436 113.596h-12.942c-10.247 0-18.583 8.336-18.583 18.583v8.805c0 10.247 8.336 18.583 18.583 18.583h95.584c4.143 0 7.5-3.357 7.5-7.5s-3.357-7.5-7.5-7.5h-95.584c-1.976 0-3.583-1.607-3.583-3.583v-8.805c0-1.976 1.607-3.583 3.583-3.583h226.167c1.976 0 3.583 1.607 3.583 3.583v8.805c0 1.976-1.607 3.583-3.583 3.583h-95.583c-4.143 0-7.5 3.357-7.5 7.5s3.357 7.5 7.5 7.5h95.583c10.247 0 18.583-8.336 18.583-18.583v-8.805c0-10.247-8.336-18.583-18.583-18.583h-12.942c-45.262-19.716-74.436-64.134-74.436-113.596v-18.956c95.783-12.626 169.955-94.796 169.955-193.971v-33.599c0-4.143-3.357-7.5-7.5-7.5s-7.5 3.357-7.5 7.5v33.599c0 99.661-81.114 180.661-180.661 180.661-99.549 0-180.66-81.001-180.66-180.661v-117.783c0-3.708 3.017-6.726 6.726-6.726h70.42l-9.384 40.283c-1.772 7.604 3.996 14.883 11.813 14.883h23.788l-35.15 75.033c-3.908 8.344 2.191 17.909 11.389 17.909h38.491l-24.871 65.47c-1.883 4.955.104 10.438 4.723 13.036 4.618 2.598 10.335 1.45 13.594-2.729l79.741-102.329c6.434-8.255.544-20.306-9.919-20.306h-37.074l60.311-101.25h149.998c3.709 0 6.726 3.018 6.726 6.726v49.184c0 4.143 3.357 7.5 7.5 7.5s7.5-3.357 7.5-7.5v-49.184c0-11.98-9.746-21.726-21.726-21.726h-150.329c-5.054 0-9.8 2.697-12.387 7.04l-62.664 105.199c-4.982 8.362 1.059 19.011 10.804 19.011h36.377l-58.84 75.508 15.806-41.608c3.124-8.22-2.962-17.041-11.755-17.041h-38.192l35.446-75.666c3.772-8.045-2.11-17.276-10.983-17.276h-24.687l8.729-37.477c2.109-9.053-4.766-17.69-14.043-17.69zm92.077 352.436v-17.562c6.828.376 14.067.402 21.411 0v17.562c0 45.902 22.406 87.942 58.905 113.596h-139.221c36.499-25.654 58.905-67.694 58.905-113.596z"/></g></g></svg>