<svg id="Flat" height="512" viewBox="0 0 512 512" width="512" xmlns="http://www.w3.org/2000/svg"><path d="m352 48 12-12a16.97055 16.97055 0 0 1 24 0 16.97055 16.97055 0 0 1 0 24l-12 12z" fill="#395166"/><path d="m240 240-8 8a22.62741 22.62741 0 0 1 -32 0l-24 24a56.56848 56.56848 0 0 0 80 0l8-8z" fill="#e88604"/><path d="m200 248-12-12a16.97055 16.97055 0 0 0 -24 0 16.97055 16.97055 0 0 0 0 24l12 12z" fill="#f4ceaf"/><path d="m110.863 190.828h226.274v16.001h-226.274z" fill="#395166" transform="matrix(.707 -.707 .707 .707 -74.985 216.627)"/><path d="m320 285.25v98.75h-120v-9.47a285.71464 285.71464 0 0 1 48-158.53l-40-48 22.35986-18.62988a40.05506 40.05506 0 0 1 62.83008 45.64988l-5.18994 12.98a109.3156 109.3156 0 0 1 32 77.25z" fill="#efa702"/><path d="m272 296-12 12a16.97055 16.97055 0 0 0 0 24 16.97055 16.97055 0 0 0 24 0l12-12z" fill="#f4ceaf"/><path d="m320 285.25v29.02a72.78221 72.78221 0 0 1 -12.68994 17.04l-12 12a32.9654 32.9654 0 1 1 -46.62012-46.62012l12-12a6.651 6.651 0 0 0 0-9.37988l-8-8 11.31006-11.31 8 8a22.65733 22.65733 0 0 1 0 32l-12 12a16.97056 16.97056 0 0 0 24 24l12-12a56.56486 56.56486 0 0 0 0-80l-8-8 11.06006-11.06006a109.20375 109.20375 0 0 1 20.93994 64.31006z" fill="#e88604"/><path d="m232 384 8 32h24v-32z" fill="#f4ceaf"/><path d="m232 416h40v24h-40z" fill="#395166"/><path d="m272 440-1.33008 8-6.66992 40h-40a25.89673 25.89673 0 0 1 14.31006-23.16016l1.68994-.83984-5.33008-16-2.66992-8z" fill="#395166"/><path d="m272 440-1.33 8h-36l-2.67-8z" fill="#2f4054"/><path d="m264 384 8 32h24v-32z" fill="#f4ceaf"/><path d="m272 416v24l-1.33008 8-6.66992 40h-16a33.68623 33.68623 0 0 1 14.34009-27.68994l-4.10009-12.31006-2.24-6.7v-25.3z" fill="#2f4054"/><path d="m272 440-1.33 8h-12.43l-2.24-6.7v-1.3z" fill="#262d43"/><path d="m264 416h40v24h-40z" fill="#395166"/><path d="m304 440-1.33008 8-6.66992 40h-40a25.89673 25.89673 0 0 1 14.31006-23.16016l1.68994-.83984-5.33008-16-2.66992-8z" fill="#395166"/><path d="m304 440-1.33 8h-36l-2.67-8z" fill="#2f4054"/><path d="m216 64a48 48 0 0 1 48 48 48 48 0 0 1 48 48 48 48 0 0 1 48 48l8.00007-8.00007a101.82328 101.82328 0 0 0 0-143.99986l-.00014-.00014a101.82328 101.82328 0 0 0 -143.99986 0z" fill="#e44b4d"/><path d="m292.85547 97.35938-9.71094-12.7168a247.964 247.964 0 0 1 49.60254-29.42969l6.50586 14.61719a231.94534 231.94534 0 0 0 -46.39746 27.5293z" fill="#d14547"/><path d="m339.35742 140.85547-12.7168-9.71094a231.94534 231.94534 0 0 0 27.5293-46.39746l14.61719 6.50586a247.964 247.964 0 0 1 -29.42969 49.60254z" fill="#d14547"/><g fill="#8acce7"><path d="m59.029 91.999h33.941v16.001h-33.941z" transform="matrix(.707 -.707 .707 .707 -48.451 83.029)"/><path d="m123.029 51.999h33.941v16.001h-33.941z" transform="matrix(.707 -.707 .707 .707 -1.421 116.569)"/><path d="m163.029 99.999h33.941v16.001h-33.941z" transform="matrix(.707 -.707 .707 .707 -23.647 158.912)"/><path d="m99.029 155.999h33.941v16.001h-33.941z" transform="matrix(.707 -.707 .707 .707 -81.99 130.059)"/><path d="m83.029 219.999h33.941v16.001h-33.941z" transform="matrix(.707 -.707 .707 .707 -131.931 137.49)"/><path d="m419.029 91.999h33.941v16.001h-33.941z" transform="matrix(.707 -.707 .707 .707 56.991 337.588)"/><path d="m459.029 139.999h33.941v16.001h-33.941z" transform="matrix(.707 -.707 .707 .707 34.765 379.931)"/><path d="m395.029 195.999h33.941v16.001h-33.941z" transform="matrix(.707 -.707 .707 .707 -23.578 351.078)"/><path d="m379.029 259.999h33.941v16.001h-33.941z" transform="matrix(.707 -.707 .707 .707 -73.519 358.51)"/><path d="m443.029 243.999h33.941v16.001h-33.941z" transform="matrix(.707 -.707 .707 .707 -43.46 399.078)"/><path d="m427.029 307.999h33.941v16.001h-33.941z" transform="matrix(.707 -.707 .707 .707 -93.401 406.51)"/><path d="m35.029 171.999h33.941v16.001h-33.941z" transform="matrix(.707 -.707 .707 .707 -112.049 89.49)"/><path d="m35.029 35.999h33.941v16.001h-33.941z" transform="matrix(.707 -.707 .707 .707 -15.882 49.657)"/></g></svg>