<svg id="Capa_1" enable-background="new 0 0 512 512" height="512" viewBox="0 0 512 512" width="512" xmlns="http://www.w3.org/2000/svg"><g><g><path d="m154.28 337.042c0 96.472 78.486 174.958 174.958 174.958l87.479-186.647-87.479-163.27c-96.472.001-174.958 78.486-174.958 174.959z" fill="#5f6dff"/><path d="m329.238 162.084v349.916c96.473 0 174.958-78.486 174.958-174.958s-78.485-174.958-174.958-174.958z" fill="#5755ff"/></g><g><g><path d="m95.346 0c-35.098 0-63.652 28.613-63.652 63.711v233.532c-15.247 16.185-23.891 37.757-23.891 60.039 0 48.271 39.271 87.542 87.542 87.542l36.145-228.993z" fill="#12627c"/><path d="m182.887 357.282c0-22.283-8.643-43.854-23.889-60.038v-233.533c0-35.098-28.554-63.711-63.652-63.711v444.823c48.27 0 87.541-39.27 87.541-87.541z" fill="#0d485d"/></g><g><g><path d="m80.346 55.317v91.248l13.494 24.348 1.506-2.222 8.402-66.805-8.402-46.569z" fill="#f6fcfd"/><path d="m110.346 55.317h-15v113.374l15-22.126z" fill="#b7e1f6"/></g><g><path d="m80.346 146.565v170.357c-16.419 6.108-28.148 21.936-28.148 40.456 0 23.792 19.356 43.148 43.148 43.148l11.375-41.026-11.375-212.935z" fill="#5894fc"/><path d="m110.346 316.922v-170.357h-15v253.961c23.792 0 43.148-19.356 43.148-43.148 0-18.52-11.729-34.348-28.148-40.456z" fill="#5f6dff"/></g></g></g><path d="m317.073 337.329c0-6.708 5.457-12.166 12.165-12.166l10.326-40.636-10.326-55.415h-14.972v31.076l-20.866-20.879-21.219 21.207 38.79 38.813c-8.2 3.958-14.922 10.499-19.128 18.554l-38.121-38.062-21.197 21.229 21.146 21.113h-32.363v30h32.14l-20.854 20.886 21.229 21.197 37.815-37.872c3.996 7.857 10.379 14.299 18.192 18.368l-37.785 37.843 21.229 21.197 20.991-21.023v32.211h14.972l9.005-46.83-9.005-48.647c-6.707.001-12.164-5.456-12.164-12.164z" fill="#d9f1fb"/><path d="m344.267 412.738 21.008 20.976 21.197-21.229-37.808-37.75c8.075-4.211 14.63-10.95 18.59-19.172l38.535 38.559 21.219-21.207-20.738-20.75h30.898v-30h-31.169l21-20.988-21.207-21.219-38.748 38.726c-4.17-8.42-11.065-15.262-19.532-19.35l38.835-38.812-21.207-21.22-20.873 20.86v-31.049h-15.028v96.051c6.708 0 12.166 5.458 12.166 12.166s-5.458 12.166-12.166 12.166v95.477h15.028z" fill="#b7e1f6"/></g></svg>